<svg width="64" height="64" viewBox="0 0 64 64" fill="none" xmlns="http://www.w3.org/2000/svg">
  <defs>
    <linearGradient id="taskGradient" x1="0%" y1="0%" x2="100%" y2="100%">
      <stop offset="0%" style="stop-color:#4F46E5;stop-opacity:1" />
      <stop offset="100%" style="stop-color:#7C3AED;stop-opacity:1" />
    </linearGradient>
  </defs>
  
  <!-- Background circle -->
  <circle cx="32" cy="32" r="28" fill="url(#taskGradient)" />
  
  <!-- Task list lines -->
  <g fill="white" opacity="0.9">
    <!-- Checkbox 1 (checked) -->
    <rect x="12" y="16" width="4" height="4" rx="1" fill="white"/>
    <path d="M13.5 17.5 L14.5 18.5 L16.5 16.5" stroke="#4F46E5" stroke-width="1.5" fill="none"/>
    
    <!-- Task line 1 -->
    <rect x="20" y="16.5" width="24" height="1.5" rx="0.75" fill="white" opacity="0.8"/>
    <line x1="20" y1="17.8" x2="32" y2="17.8" stroke="white" stroke-width="0.5" opacity="0.6"/>
    
    <!-- Checkbox 2 (unchecked) -->
    <rect x="12" y="26" width="4" height="4" rx="1" fill="none" stroke="white" stroke-width="1"/>
    
    <!-- Task line 2 -->
    <rect x="20" y="26.5" width="28" height="1.5" rx="0.75" fill="white" opacity="0.9"/>
    <rect x="20" y="29" width="20" height="1" rx="0.5" fill="white" opacity="0.7"/>
    
    <!-- Checkbox 3 (unchecked) -->
    <rect x="12" y="36" width="4" height="4" rx="1" fill="none" stroke="white" stroke-width="1"/>
    
    <!-- Task line 3 -->
    <rect x="20" y="36.5" width="25" height="1.5" rx="0.75" fill="white" opacity="0.9"/>
    <rect x="20" y="39" width="18" height="1" rx="0.5" fill="white" opacity="0.7"/>
    
    <!-- Checkbox 4 (checked) -->
    <rect x="12" y="46" width="4" height="4" rx="1" fill="white"/>
    <path d="M13.5 47.5 L14.5 48.5 L16.5 46.5" stroke="#4F46E5" stroke-width="1.5" fill="none"/>
    
    <!-- Task line 4 -->
    <rect x="20" y="46.5" width="22" height="1.5" rx="0.75" fill="white" opacity="0.8"/>
    <line x1="20" y1="47.8" x2="30" y2="47.8" stroke="white" stroke-width="0.5" opacity="0.6"/>
  </g>
</svg> 